<svg version="1.1" id="Layer_1" xmlns="http://www.w3.org/2000/svg" xmlns:xlink="http://www.w3.org/1999/xlink" x="0px" y="0px"
	 width="100%" viewBox="0 0 680 680" enable-background="new 0 0 680 680" xml:space="preserve">
<path fill="#000000" opacity="1.000000" stroke="none" 
	d="
M449.000000,681.000000 
	C299.333344,681.000000 150.166672,681.000000 1.000000,681.000000 
	C1.000000,454.333344 1.000000,227.666672 1.000000,1.000000 
	C227.666672,1.000000 454.333344,1.000000 681.000000,1.000000 
	C681.000000,227.666672 681.000000,454.333344 681.000000,681.000000 
	C603.833313,681.000000 526.666687,681.000000 449.000000,681.000000 
M345.888641,580.951782 
	C364.765198,581.714294 383.211609,578.786499 401.445801,574.289185 
	C425.607513,568.330139 448.330627,558.808838 469.465668,545.699341 
	C490.734924,532.506592 510.034424,516.822876 525.924316,497.397705 
	C540.444763,479.646729 552.695618,460.418427 561.981750,439.301758 
	C572.957703,414.342590 580.121948,388.324615 581.722839,361.242645 
	C583.309143,334.406891 582.434631,307.518127 575.256714,281.204315 
	C569.557312,260.310944 561.999695,240.269287 551.226685,221.420959 
	C537.185059,196.853897 520.019470,174.826202 498.126099,156.855591 
	C478.312805,140.592361 456.664551,127.187775 432.632050,117.830292 
	C403.761719,106.589134 374.095245,99.872627 341.998749,101.035683 
	C328.296143,100.691177 314.721619,101.591637 301.165497,103.907722 
	C277.839935,107.892914 255.496643,114.877449 234.360474,125.380341 
	C219.214325,132.906693 205.094543,142.113464 191.635635,152.524460 
	C175.470367,165.028900 161.429199,179.482162 149.234100,195.657013 
	C138.299332,210.160263 129.178223,225.824692 121.665192,242.506775 
	C110.126312,268.127960 103.008675,294.903107 101.261078,322.748932 
	C99.725021,347.224213 100.886925,371.720428 106.858223,395.863373 
	C112.661179,419.325684 120.993210,441.729004 133.293884,462.423096 
	C147.680588,486.626587 165.207581,508.302765 187.395660,526.103333 
	C201.297714,537.256348 215.734619,547.546875 231.790115,555.103516 
	C245.062531,561.350220 258.889557,566.591431 272.820587,571.227173 
	C296.176025,578.999023 320.319458,582.063416 345.888641,580.951782 
z"/>
<path fill="#F269AD" opacity="1.000000" stroke="none" 
	d="
M344.953674,580.863037 
	C320.319458,582.063416 296.176025,578.999023 272.820587,571.227173 
	C258.889557,566.591431 245.062531,561.350220 231.790115,555.103516 
	C215.734619,547.546875 201.297714,537.256348 187.395660,526.103333 
	C165.207581,508.302765 147.680588,486.626587 133.293884,462.423096 
	C120.993210,441.729004 112.661179,419.325684 106.858223,395.863373 
	C100.886925,371.720428 99.725021,347.224213 101.261078,322.748932 
	C103.008675,294.903107 110.126312,268.127960 121.665192,242.506775 
	C129.178223,225.824692 138.299332,210.160263 149.234100,195.657013 
	C161.429199,179.482162 175.470367,165.028900 191.635635,152.524460 
	C205.094543,142.113464 219.214325,132.906693 234.360474,125.380341 
	C255.496643,114.877449 277.839935,107.892914 301.165497,103.907722 
	C314.721619,101.591637 328.296143,100.691177 342.660522,101.386688 
	C345.592804,102.708382 347.904572,103.593361 350.127380,104.663116 
	C370.997894,114.707314 389.097015,128.371765 404.966125,145.297836 
	C419.609100,160.916031 431.542847,178.335068 441.500610,197.134079 
	C450.877106,214.835739 457.981445,233.494644 463.410522,252.794769 
	C469.555145,274.638519 473.911560,296.901428 474.746368,319.502655 
	C475.588196,342.294891 476.508789,365.281464 471.962646,387.895264 
	C468.617249,404.536346 465.406982,421.251373 460.953827,437.611542 
	C454.901337,459.847412 445.321136,480.708221 433.240265,500.377747 
	C417.806885,525.505615 399.031738,547.635254 374.346191,564.107971 
	C364.988586,570.352295 354.776337,575.315735 344.953674,580.863037 
z"/>
<path fill="#420165" opacity="1.000000" stroke="none" 
	d="
M345.421143,580.907410 
	C354.776337,575.315735 364.988586,570.352295 374.346191,564.107971 
	C399.031738,547.635254 417.806885,525.505615 433.240265,500.377747 
	C445.321136,480.708221 454.901337,459.847412 460.953827,437.611542 
	C465.406982,421.251373 468.617249,404.536346 471.962646,387.895264 
	C476.508789,365.281464 475.588196,342.294891 474.746368,319.502655 
	C473.911560,296.901428 469.555145,274.638519 463.410522,252.794769 
	C457.981445,233.494644 450.877106,214.835739 441.500610,197.134079 
	C431.542847,178.335068 419.609100,160.916031 404.966125,145.297836 
	C389.097015,128.371765 370.997894,114.707314 350.127380,104.663116 
	C347.904572,103.593361 345.592804,102.708382 343.120544,101.447784 
	C374.095245,99.872627 403.761719,106.589134 432.632050,117.830292 
	C456.664551,127.187775 478.312805,140.592361 498.126099,156.855591 
	C520.019470,174.826202 537.185059,196.853897 551.226685,221.420959 
	C561.999695,240.269287 569.557312,260.310944 575.256714,281.204315 
	C582.434631,307.518127 583.309143,334.406891 581.722839,361.242645 
	C580.121948,388.324615 572.957703,414.342590 561.981750,439.301758 
	C552.695618,460.418427 540.444763,479.646729 525.924316,497.397705 
	C510.034424,516.822876 490.734924,532.506592 469.465668,545.699341 
	C448.330627,558.808838 425.607513,568.330139 401.445801,574.289185 
	C383.211609,578.786499 364.765198,581.714294 345.421143,580.907410 
z"/>
</svg>