<?xml version="1.0" encoding="UTF-8" standalone="no"?>
<svg
   version="1.1"
   id="Layer_1"
   x="0px"
   y="0px"
   width="100%"
   viewBox="0 0 680 680"
   enable-background="new 0 0 680 680"
   xml:space="preserve"
   sodipodi:docname="file.svg"
   inkscape:version="1.4 (e7c3feb100, 2024-10-09)"
   xmlns:inkscape="http://www.inkscape.org/namespaces/inkscape"
   xmlns:sodipodi="http://sodipodi.sourceforge.net/DTD/sodipodi-0.dtd"
   xmlns="http://www.w3.org/2000/svg"
   xmlns:svg="http://www.w3.org/2000/svg"><defs
   id="defs3" /><sodipodi:namedview
   id="namedview3"
   pagecolor="#ffffff"
   bordercolor="#000000"
   borderopacity="0.25"
   inkscape:showpageshadow="2"
   inkscape:pageopacity="0.0"
   inkscape:pagecheckerboard="0"
   inkscape:deskcolor="#d1d1d1"
   inkscape:zoom="1.4578878"
   inkscape:cx="404.00914"
   inkscape:cy="370.39887"
   inkscape:window-width="1916"
   inkscape:window-height="1054"
   inkscape:window-x="0"
   inkscape:window-y="0"
   inkscape:window-maximized="0"
   inkscape:current-layer="Layer_1" />
<path
   fill="#F269AD"
   opacity="1.000000"
   stroke="none"
   d=" M344.953674,580.863037   C320.319458,582.063416 296.176025,578.999023 272.820587,571.227173   C258.889557,566.591431 245.062531,561.350220 231.790115,555.103516   C215.734619,547.546875 201.297714,537.256348 187.395660,526.103333   C165.207581,508.302765 147.680588,486.626587 133.293884,462.423096   C120.993210,441.729004 112.661179,419.325684 106.858223,395.863373   C100.886925,371.720428 99.725021,347.224213 101.261078,322.748932   C103.008675,294.903107 110.126312,268.127960 121.665192,242.506775   C129.178223,225.824692 138.299332,210.160263 149.234100,195.657013   C161.429199,179.482162 175.470367,165.028900 191.635635,152.524460   C205.094543,142.113464 219.214325,132.906693 234.360474,125.380341   C255.496643,114.877449 277.839935,107.892914 301.165497,103.907722   C314.721619,101.591637 328.296143,100.691177 342.660522,101.386688   C345.592804,102.708382 347.904572,103.593361 350.127380,104.663116   C370.997894,114.707314 389.097015,128.371765 404.966125,145.297836   C419.609100,160.916031 431.542847,178.335068 441.500610,197.134079   C450.877106,214.835739 457.981445,233.494644 463.410522,252.794769   C469.555145,274.638519 473.911560,296.901428 474.746368,319.502655   C475.588196,342.294891 476.508789,365.281464 471.962646,387.895264   C468.617249,404.536346 465.406982,421.251373 460.953827,437.611542   C454.901337,459.847412 445.321136,480.708221 433.240265,500.377747   C417.806885,525.505615 399.031738,547.635254 374.346191,564.107971   C364.988586,570.352295 354.776337,575.315735 344.953674,580.863037  z"
   id="path2" />
<path
   fill="#420165"
   opacity="1"
   stroke="none"
   d="m 345.42114,580.90741 c 9.3552,-5.59167 19.56745,-10.55511 28.92505,-16.79944 24.68555,-16.47272 43.4607,-38.60235 58.89408,-63.73022 12.08087,-19.66953 21.66107,-40.53034 27.71356,-62.76621 4.45315,-16.36017 7.66342,-33.07519 11.00882,-49.71628 4.54614,-22.6138 3.62555,-45.60037 2.78372,-68.39261 -0.83481,-22.60122 -5.19123,-44.86413 -11.33585,-66.70788 -5.42908,-19.30013 -12.53341,-37.95903 -21.90991,-55.66069 -9.95776,-18.79901 -21.89151,-36.21805 -36.53449,-51.83624 -15.86911,-16.92608 -33.96823,-30.59053 -54.83874,-40.63472 -2.22281,-1.06976 -4.53458,-1.95474 -7.00684,-3.21534 30.9747,-1.575153 60.64118,5.14135 89.51151,16.38251 24.0325,9.35749 45.68076,22.76207 65.49405,39.0253 21.89337,17.97061 39.05896,39.99831 53.10058,64.56537 10.77301,18.84833 18.33063,38.88998 24.03003,59.78335 7.17792,26.31382 8.05243,53.20258 6.46613,80.03833 -1.60089,27.08197 -8.76514,53.09995 -19.74109,78.05912 -9.28613,21.11667 -21.53699,40.34497 -36.05743,58.09594 -15.8899,19.42518 -35.1894,35.10889 -56.45865,48.30164 -21.13504,13.1095 -43.85816,22.6308 -68.01987,28.58984 -18.23419,4.49732 -36.6806,7.42511 -56.02466,6.61823 z"
   id="path3"
   style="display:inline" />
</svg>
